<?xml version="1.0" encoding="UTF-8"?>
<svg id="Capa_1" data-name="Capa 1" xmlns="http://www.w3.org/2000/svg" xmlns:xlink="http://www.w3.org/1999/xlink" viewBox="0 0 566.93 566.93">
  <defs>
    <style>
      .cls-1 {
        fill: #fff;
        stroke: #fff;
        stroke-width: 4px;
      }

      .cls-1, .cls-2 {
        stroke-linecap: round;
        stroke-linejoin: round;
      }

      .cls-3, .cls-2 {
        fill: none;
      }

      .cls-2 {
        stroke: #3a9291;
        stroke-width: 23px;
      }

      .cls-4 {
        clip-path: url(#clippath);
      }
    </style>
    <clipPath id="clippath">
      <path class="cls-3" d="M203.66,209.22v148.5h160.5v-148.5h-160.5ZM231.35,324.94l-26.69-7.02v-24.87l.41-.72c.35,1.08.76,1.85,1.12,2.21l25.16,6.61v23.78ZM246.21,274.35l-6.28-25.43,29.33,7.71,6.28,25.43-29.33-7.71ZM363.16,305.6l-.39.79-.25.2-.64.13c-.36-1.12-.78-1.9-1.14-2.26l-24.27-6.38v-23.78l26.69,7.02v24.29Z"/>
    </clipPath>
  </defs>
  <path class="cls-1" d="M207.66,353.71v-140.5h47.8l28.14,114.01h1.66l27.52-114.01h47.39v140.5h-20.69v-119.8h-10.55l-27.52,114.01h-33.93l-28.14-114.01h-10.96v119.8h-20.69Z"/>
  <path class="cls-2" d="M309.39,333.56l41.16,10.82c8.6,2.26,18.57-7.32,22.27-21.39h0c3.7-14.08-.27-27.32-8.87-29.58l-147.58-38.79c-8.6-2.26-18.57,7.32-22.27,21.39h0c-3.7,14.08.27,27.32,8.87,29.58l73.39,19.29"/>
  <g class="cls-4">
    <path class="cls-1" d="M207.66,353.71v-140.5h47.8l28.14,114.01h1.66l27.52-114.01h47.39v140.5h-20.69v-119.8h-10.55l-27.52,114.01h-33.93l-28.14-114.01h-10.96v119.8h-20.69Z"/>
  </g>
</svg>