<?xml version="1.0" encoding="UTF-8"?>
<svg id="Capa_1" data-name="Capa 1" xmlns="http://www.w3.org/2000/svg" xmlns:xlink="http://www.w3.org/1999/xlink" viewBox="0 0 566.93 566.93">
  <defs>
    <style>
      .cls-1 {
        fill: #fff;
        stroke: #fff;
        stroke-width: 4px;
      }

      .cls-1, .cls-2 {
        stroke-linecap: round;
        stroke-linejoin: round;
      }

      .cls-3, .cls-2 {
        fill: none;
      }

      .cls-2 {
        stroke: #3a9291;
        stroke-width: 23px;
      }

      .cls-4 {
        clip-path: url(#clippath);
      }
    </style>
    <clipPath id="clippath">
      <path class="cls-3" d="M133.08,194.56v177.81h305.66v-177.81H133.08ZM160.77,310.28l-26.08-6.86c-.2-.05-.4-.12-.61-.17v-24.87c1.94,1.22,4.11,2.18,6.45,2.8l20.24,5.32v23.78ZM175.63,259.69l-6.28-25.43,29.33,7.71,6.28,25.43-29.33-7.71ZM292.58,290.44l-26.69-7.02v-23.78l26.69,7.02v23.78ZM433.29,328.69c-2.04-1.36-4.36-2.41-6.89-3.07l-18.54-4.87c2.25-6.01,3.33-13.07,3.18-21.01,0-.66-.01-1.3-.03-1.94l21.23,5.58c1.84.48,3.63,1.08,5.37,1.77-.37,8.47-1.83,16.38-4.33,23.54Z"/>
    </clipPath>
  </defs>
  <g>
    <path class="cls-1" d="M137.08,339.06v-140.5h47.8l28.14,114.01h1.66l27.52-114.01h47.39v140.5h-20.69v-119.8h-10.55l-27.52,114.01h-33.93l-28.14-114.01h-10.96v119.8h-20.69Z"/>
    <path class="cls-1" d="M369.14,368.37c-3.45,0-6.83-.21-10.14-.62s-6.49-1.04-9.52-1.86c-3.04-.83-5.93-1.86-8.69-3.1-2.76-1.24-5.42-2.65-7.96-4.24-2.56-1.58-4.93-3.34-7.14-5.28-3.45-3.03-6.56-6.52-9.31-10.45-2.76-3.93-5.1-8.21-7.04-12.83-1.93-4.62-3.38-9.59-4.34-14.9-.97-5.31-1.45-10.87-1.45-16.66,0-14.34,2.72-26.83,8.17-37.45,5.45-10.62,13.17-18.83,23.17-24.62,10-5.79,21.76-8.69,35.28-8.69s24.69,2.93,34.35,8.79c9.65,5.86,17.1,14.17,22.35,24.93,5.24,10.76,7.87,23.52,7.87,38.28.13,13.79-2.45,25.86-7.76,36.21-5.31,10.35-12.9,18.35-22.76,24-9.87,5.66-21.56,8.48-35.07,8.48ZM369.14,347.68c14.35,0,25.48-4.21,33.42-12.62,7.93-8.42,11.76-20.21,11.48-35.38,0-16.41-3.83-29.07-11.48-37.97-7.66-8.9-18.46-13.35-32.39-13.35s-25.76,4.38-33.83,13.14c-8.07,8.76-12.1,21.07-12.1,36.94,0,5.38.48,10.38,1.45,15,.96,4.62,2.45,8.79,4.45,12.52,2,3.72,4.38,7.04,7.14,9.93,1.52,1.52,3.17,2.9,4.96,4.14,1.79,1.24,3.69,2.35,5.69,3.31,2,.97,4.14,1.76,6.41,2.38,2.28.62,4.66,1.11,7.14,1.45,2.48.35,5.04.52,7.66.52Z"/>
    <path class="cls-1" d="M296.56,353.02v-15.93h9v15.93h-9Z"/>
  </g>
  <path class="cls-2" d="M338.29,345.06l77.63,20.41c16.22,4.26,32.36-3.69,36.06-17.77h0c3.7-14.08-6.45-28.94-22.66-33.2l-278.31-73.16c-16.22-4.26-32.36,3.69-36.06,17.77h0c-3.7,14.08,6.45,28.94,22.66,33.2l138.4,36.38"/>
  <g class="cls-4">
    <g>
      <path class="cls-1" d="M137.08,339.06v-140.5h47.8l28.14,114.01h1.66l27.52-114.01h47.39v140.5h-20.69v-119.8h-10.55l-27.52,114.01h-33.93l-28.14-114.01h-10.96v119.8h-20.69Z"/>
      <path class="cls-1" d="M369.14,368.37c-3.45,0-6.83-.21-10.14-.62s-6.49-1.04-9.52-1.86c-3.04-.83-5.93-1.86-8.69-3.1-2.76-1.24-5.42-2.65-7.96-4.24-2.56-1.58-4.93-3.34-7.14-5.28-3.45-3.03-6.56-6.52-9.31-10.45-2.76-3.93-5.1-8.21-7.04-12.83-1.93-4.62-3.38-9.59-4.34-14.9-.97-5.31-1.45-10.87-1.45-16.66,0-14.34,2.72-26.83,8.17-37.45,5.45-10.62,13.17-18.83,23.17-24.62,10-5.79,21.76-8.69,35.28-8.69s24.69,2.93,34.35,8.79c9.65,5.86,17.1,14.17,22.35,24.93,5.24,10.76,7.87,23.52,7.87,38.28.13,13.79-2.45,25.86-7.76,36.21-5.31,10.35-12.9,18.35-22.76,24-9.87,5.66-21.56,8.48-35.07,8.48ZM369.14,347.68c14.35,0,25.48-4.21,33.42-12.62,7.93-8.42,11.76-20.21,11.48-35.38,0-16.41-3.83-29.07-11.48-37.97-7.66-8.9-18.46-13.35-32.39-13.35s-25.76,4.38-33.83,13.14c-8.07,8.76-12.1,21.07-12.1,36.94,0,5.38.48,10.38,1.45,15,.96,4.62,2.45,8.79,4.45,12.52,2,3.72,4.38,7.04,7.14,9.93,1.52,1.52,3.17,2.9,4.96,4.14,1.79,1.24,3.69,2.35,5.69,3.31,2,.97,4.14,1.76,6.41,2.38,2.28.62,4.66,1.11,7.14,1.45,2.48.35,5.04.52,7.66.52Z"/>
      <path class="cls-1" d="M296.56,353.02v-15.93h9v15.93h-9Z"/>
    </g>
  </g>
</svg>